<svg xmlns="http://www.w3.org/2000/svg" width="20" height="20" fill="black" viewBox="0 0 384 512">
  <path d="M318.7 268.7c-.5-55.5 45.5-81.9 47.6-83.2-25.9-37.8-66.1-43-80.5-43.4-34.2-3.5-66.8 20.3-84.1 20.3-17.2 0-44.1-19.8-72.4-19.3-37.2.6-71.6 21.6-90.7 54.7-38.6 66.7-9.8 165.1 27.6 219.1 18.3 26.5 40.1 56.2 68.7 55 27.5-1.1 38-17.8 71.4-17.8s43.2 17.8 72.5 17.3c29.9-.5 48.7-26.6 66.9-53.3 21-30.7 29.6-60.4 30.1-61.9-.6-.3-57.5-22.1-58-87.5zM259.1 83.5c15.3-18.5 25.6-44.3 22.8-70.1-22.1.9-48.9 14.7-64.9 33.1-14.2 16.4-26.5 42.8-23.2 68 24.4 1.9 50-12.4 65.3-31z"/>
</svg>
