<svg xmlns="http://www.w3.org/2000/svg" width="20" height="20" viewBox="0 0 48 48">
  <path fill="#4285F4" d="M24 9.5c3.9 0 6.6 1.7 8.1 3.2l6-6C34.6 3.4 29.7 1 24 1 14.6 1 6.5 6.8 2.7 15.3l7.1 5.5C11.4 13.8 17.2 9.5 24 9.5z"/>
  <path fill="#34A853" d="M46.1 24.5c0-1.6-.1-2.7-.3-3.9H24v7.3h12.6c-.3 2.1-1.6 5.3-4.6 7.5l7.1 5.4c4.2-3.9 6.6-9.7 6.6-16.3z"/>
  <path fill="#FBBC05" d="M9.8 28.9c-.6-1.7-1-3.5-1-5.4s.4-3.7 1-5.4l-7.1-5.5C.6 16 0 20 0 23.5s.6 7.5 2.7 11l7.1-5.6z"/>
  <path fill="#EA4335" d="M24 47c6.5 0 12-2.1 16-6l-7.1-5.4c-2 1.4-4.6 2.3-8.9 2.3-6.8 0-12.6-4.3-14.6-10.2l-7.1 5.6C6.5 41.2 14.6 47 24 47z"/>
</svg>
